<svg width="253" height="43" viewBox="0 0 253 43" xmlns="http://www.w3.org/2000/svg"><title>logo-ApiMarket</title><path d="M41.3 38.2H27.6V5.6h14.2c6.7 0 9 5.4 5.6 10.4l-1.6 2.4c11.2 5.8 7.6 19.8-4.5 19.8M39.7 20l2.7-4.1c.7-1 .8-1.7.8-2.4 0-2-1.8-3.7-3.8-3.7h-4.2v24h2.3c3.9 0 6.8-2.1 6.8-7 .2-4-1.7-6.2-4.6-6.8m-26 18.2H0V5.6h14.2c6.7 0 9 5.4 5.6 10.4l-1.6 2.4c11.2 5.8 7.6 19.8-4.5 19.8M12.1 20l2.7-4.1c.7-1 .8-1.7.8-2.4 0-2-1.8-3.7-3.8-3.7H7.7v24H10c3.9 0 6.8-2.1 6.8-7 0-4-1.9-6.2-4.7-6.8M73.8 5.6H79L69 38.2h-7.8L50.5 5.6h5.8c2.2 0 2.8.6 4 4.3l6.2 20.5 7.3-24.8m21.5 3.3c-.9-2.7-1.5-3.3-4-3.3h-6.2l-10 32.6h5.1l2.1-7h11.9l2.2 7h8.8L95.3 8.9zM83.8 26.4l4.5-14.9 4.5 14.9h-9zM121.2.8h1v42h-1zM138 29.9l5.7-16.3h1.7l5.7 16.1-1.5.3-1.8-5.1h-6.6l-1.7 5H138zm3.8-6.4h5.6l-2.8-8.1-2.8 8.1zm12.2 6.4V13.7h5.4c3.5 0 5.7 1.4 5.7 4.4 0 3.3-2.4 4.6-5.8 4.6h-3.7v7.2H154zm1.6-8.6h3.8c2.7 0 4.2-.9 4.2-3.2 0-2.2-1.5-3-4.2-3h-3.8v6.2zm12.7-7.6h1.6v16.2h-1.6zm3.9 17.7h10.9v1.2h-10.9zm13-1.5V13.7h2l5.4 14.2 5.4-14.2h2v16.2h-1.6V16.3c-.2.7-.6 1.8-1 2.8l-4.2 10.7h-1.4l-4.2-10.7c-.4-1-.7-1.7-1-2.9v13.6h-1.4v.1zm18-2.7c0-2.3 1.9-3.9 7.8-4.8v-.6c0-1.6-.9-2.4-2.4-2.4-1.8 0-3 .7-4.3 1.8l-.9-.9c1.4-1.3 2.9-2.1 5.2-2.1 2.6 0 3.7 1.4 3.7 3.7V30H211l-.2-1.6c-1.3 1.2-2.8 1.8-4.6 1.8-1.8-.1-3-1.2-3-3m7.8-.2v-3.6c-5.1.9-6.3 2.1-6.3 3.6 0 1.2.8 1.8 2.1 1.8 1.6 0 3.1-.7 4.2-1.8m4.9 2.9V18.4h1.4l.2 2.3c.9-1.4 2.3-2.5 4.5-2.5h.2l.1 1.4h-.5c-1.9 0-3.4 1.1-4.3 2.9V30h-1.6v-.1zm8.6 0V13.8l1.5-.2v10.8l5.5-6h1.8l-3.8 4 4.2 7.3-1.5.3-3.7-6.4-2.5 2.6v3.7zm10.5-5.8c0-4.1 2.6-6 5.1-6 2.7 0 4.7 2.1 4.7 6v.3h-8.3c0 2.8 1.6 4.4 3.8 4.4 1.5 0 2.6-.6 3.7-1.7l.7 1c-1.3 1.3-2.5 2-4.5 2-2.8 0-5.2-2.1-5.2-6zm8.3-.9c-.2-2.2-1.2-3.8-3.3-3.8-1.7 0-3.2 1.2-3.5 3.8h6.8zm5.1 3.9v-7.5h-2v-1.3h2v-4l1.5-.2v4.3h3v1.3h-3V27c0 1.2.5 1.8 1.8 1.8.4 0 .8-.1 1.1-.2l.2 1.3c-.4.1-1 .1-1.6.1-2 0-3-.8-3-2.9" fill="#FFF"/></svg>