<?xml version="1.0" encoding="utf-8"?>
<!-- Generator: Adobe Illustrator 21.0.2, SVG Export Plug-In . SVG Version: 6.00 Build 0)  -->
<svg version="1.1" id="Warstwa_1" xmlns="http://www.w3.org/2000/svg" xmlns:xlink="http://www.w3.org/1999/xlink" x="0px" y="0px"
	 viewBox="0 0 468.1 65" style="enable-background:new 0 0 468.1 65;" xml:space="preserve">
<style type="text/css">
	.st0{clip-path:url(#SVGID_2_);}
	.st1{clip-path:url(#SVGID_4_);fill:#FFFFFF;}
	.st2{clip-path:url(#SVGID_6_);}
	.st3{clip-path:url(#SVGID_8_);fill:#F1C933;}
	.st4{fill:#FEFEFF;}
</style>
<g>
	<defs>
		<path id="SVGID_1_" d="M49.8,26.2h3c5.2,0,5.8,1.6,5.8,2.8c0,1.8-1.8,2.8-5.4,2.8h-3.4V26.2z M66,28.9c0-4.3-4.7-6.8-12.9-6.8
			H42.3v21.7h7.5v-8.1h2.1l6.2,8.1h8.2l-6.9-9C63.7,33.7,66,31.7,66,28.9z M86.1,22.1L83,26.5c-1.1,1.6-2.3,3.5-2.8,4.6
			c-0.5-1.2-1.8-3.2-2.8-4.6l-3.1-4.4h-8.3l10.5,13.6v8.1h7.5v-8.2l10.5-13.5H86.1z M107,35.4h-5.3l1-2.3c0.7-1.5,1.3-3.4,1.7-4.5
			c0.4,1.2,1.1,3.2,1.7,4.6L107,35.4z M100.7,22.1L90.5,43.6l-0.1,0.3H98l1.9-4.5h8.7l1.9,4.5h7.8l-10.4-21.7H100.7z M137.6,31.1
			c0,0.9,0.1,2.3,0.1,3.5c0,0.3,0,0.6,0,0.9c-0.8-1.2-1.9-2.8-2.8-3.9l-7-9.4l-0.1-0.1h-7.5v21.7h6.9v-9.2c0-1.2,0-2.9-0.1-4.2
			c0.7,1,1.6,2.4,2.7,3.8l7.4,9.5l0.1,0.1h7.1V22.1h-6.9V31.1z M163.6,35.4h-5.3l1-2.3c0.7-1.5,1.3-3.4,1.7-4.5
			c0.4,1.3,1.1,3.2,1.7,4.6L163.6,35.4z M157.4,22.1l-10.3,21.5l-0.1,0.3h7.7l1.9-4.5h8.7l1.9,4.5h7.8l-10.4-21.7H157.4z
			 M177.3,43.8h7.5V22.1h-7.5V43.8z M198.1,26.2h3c5.2,0,5.8,1.6,5.8,2.8c0,1.8-1.8,2.8-5.4,2.8h-3.4V26.2z M207.7,34.9
			c4.3-1.1,6.6-3.2,6.6-5.9c0-4.3-4.7-6.8-12.9-6.8h-10.8v21.7h7.5v-8.1h2.1l6.2,8.1h8.2L207.7,34.9z"/>
	</defs>
	<use xlink:href="#SVGID_1_"  style="overflow:visible;fill-rule:evenodd;clip-rule:evenodd;fill:#FFFFFF;"/>
	<clipPath id="SVGID_2_">
		<use xlink:href="#SVGID_1_"  style="overflow:visible;"/>
	</clipPath>
	<g class="st0">
		<defs>
			<rect id="SVGID_3_" width="230" height="65"/>
		</defs>
		<use xlink:href="#SVGID_3_"  style="overflow:visible;fill:#FFFFFF;"/>
		<clipPath id="SVGID_4_">
			<use xlink:href="#SVGID_3_"  style="overflow:visible;"/>
		</clipPath>
		<rect x="37.3" y="17.1" class="st1" width="182.3" height="31.7"/>
	</g>
</g>
<g>
	<defs>
		<path id="SVGID_5_" d="M25.9,25c0.3,0.4-0.1,0.7-0.2,1c-1.1,1.7-1.5,3.6-2.2,5.5c-0.1,0.1-0.2,0.1-0.2,0.1C23,31.4,23,31.2,23,31
			c0.1-2,0.7-3.8,1.5-5.6c0.2-0.3,0.5-0.6,1-0.5C25.6,24.8,25.7,24.9,25.9,25 M28.8,25.5c0.1,0.7-0.3,1.2-0.5,1.8
			c-1.1,2.2-2.4,4.4-3,6.7c0,0.1-0.1,0.2-0.2,0.2c-0.1,0-0.2,0-0.2-0.1c-0.2-0.9,0-1.9,0.3-2.8c0.6-2,1.4-4,2.4-5.8
			c0.1-0.1,0.1-0.2,0.3-0.2C28.2,25.2,28.6,25.3,28.8,25.5 M32,25.7c0.3,0.2,0.1,0.6,0,0.9c-1.3,2.9-3.3,5.3-4.2,8.3
			c-0.2,0.6-0.4,1.3-0.6,1.9c0,0.1-0.2,0.1-0.3,0.1c-0.1-0.3-0.1-0.6-0.1-0.9c0.3-2.4,0.8-4.8,2-6.9c0.5-1.1,1-2,1.6-3
			c0.2-0.3,0.4-0.6,0.8-0.6C31.5,25.5,31.7,25.5,32,25.7 M35.4,25.8c0.2,0.3,0,0.7-0.1,1.1c-0.8,2.3-2.3,4.2-3.5,6.3
			c-1,1.7-1.7,3.6-2.4,5.5c-0.2,0.6-0.3,1.2-0.6,1.7c0,0.1-0.1,0-0.1,0c-0.2-0.2-0.2-0.4-0.2-0.6c0.1-2.3,1-4.5,1.9-6.6
			c1-2.4,2.4-4.6,3.4-7.1c0.1-0.3,0.4-0.7,0.8-0.8C34.9,25.4,35.2,25.5,35.4,25.8 M30.8,21.5c1.5,0.5,3,0.9,4.6,1.1l1.1,0l0,0
			c0.7,0,1.2-0.3,1.8-0.4c0.1,0,0.2-0.1,0.3,0c0,0.1,0,0.3-0.2,0.4c-0.8,0.6-1.7,1.1-2.6,1.4v0c-0.3,0.1-0.6,0.2-0.9,0.3
			c-1.1,0.3-2.3,0.5-3.5,0.5c-2.3-0.1-4.2-0.9-6.2-0.8c-2-0.1-3.8,0.6-4.9,2.1c-0.5,0.8-1,1.6-1.1,2.5c0.1,0.8,1.2,1.1,1.6,1.8
			c0.2,0.4,0.4,0.9,0.6,1.3c0.5,0.9,0.9,1.7,1.5,2.5l0,0c0.3,0.5,0.9,1,1.5,1.3c0.8,0.6,1.6,1.4,2,2.2l0,0c0.5,0.8,0.8,1.6,1.1,2.5
			c0.2,0.5,0.4,1,0.5,1.5c0,0,0,0.1,0.1,0.2c0.1,0.4,0.3,0.8,0.4,1.2c-0.1,0.1,0.1,0.1,0,0.1c0,0.2,0.2,0.6-0.1,0.7
			c-0.4-0.4-0.6-0.9-0.8-1.3c-0.5-0.9-1-1.7-1.6-2.5l0,0c-0.4-0.5-0.8-1-1.2-1.5c-1.8-2-4.4-3.2-6.3-5.1l0,0
			c-0.2-0.1-0.3-0.3-0.4-0.5l0,0c-0.2-0.3-0.4-0.7-0.6-1l0,0c-0.6-0.9-1.2-1.8-1.5-2.8c-0.1-0.4-0.2-0.8-0.3-1.2l0-0.2
			c0-0.4-1-0.7-0.5-1.5c0.4-0.4,1.8-0.9,2.3-1.7c0-0.1,0-0.2-0.1-0.3c0-0.1-0.1-0.2-0.1-0.2c-0.3-0.3-1-0.1-1-0.6
			c0.1,0,0-0.1,0.1-0.1c0-0.2-0.1-0.4,0-0.6c0.1-0.4,0.3-0.9,0.3-1.3c0-0.2,0.2-0.2,0.3-0.3c0.3-0.1,0.6-0.1,0.9-0.2l0,0
			c0.7-0.1,1.5,0,2,0.5c0.2,0.4,0,0.9-0.1,1.3c0,0.2-0.3,0.4-0.2,0.7c0.1,0.1,0.3,0.1,0.4,0c1-0.6,1.9-1.5,2.7-2.4
			c0.7-0.7,1.7-0.9,2.7-0.8C27.4,20.4,29,21.1,30.8,21.5"/>
	</defs>
	<clipPath id="SVGID_6_">
		<use xlink:href="#SVGID_5_"  style="overflow:visible;"/>
	</clipPath>
	<g class="st2">
		<defs>
			<rect id="SVGID_7_" width="230" height="65"/>
		</defs>
		<clipPath id="SVGID_8_">
			<use xlink:href="#SVGID_7_"  style="overflow:visible;"/>
		</clipPath>
		<rect x="10.2" y="15.3" class="st3" width="33.4" height="33.6"/>
	</g>
</g>
<g>
	<path class="st4" d="M231.4,43.8V26.3h-3.2v-2.7h3.2v-2.1c0-2.2,0.6-3.8,1.7-5c1.2-1.2,2.8-1.8,4.9-1.8c0.8,0,1.6,0.1,2.4,0.3
		l-0.2,2.8c-0.6-0.1-1.2-0.2-1.9-0.2c-1.1,0-2,0.3-2.6,1c-0.6,0.7-0.9,1.6-0.9,2.8v2.1h4.3v2.7h-4.3v17.5H231.4z"/>
	<path class="st4" d="M242.1,33.5c0-2,0.4-3.8,1.2-5.3s1.9-2.8,3.2-3.7c1.4-0.9,3-1.3,4.7-1.3c2.7,0,5,1,6.7,2.9
		c1.7,1.9,2.5,4.4,2.5,7.6V34c0,2-0.4,3.7-1.1,5.3c-0.8,1.6-1.8,2.8-3.2,3.6c-1.4,0.9-3,1.3-4.8,1.3c-2.7,0-5-1-6.7-2.9
		c-1.7-1.9-2.5-4.4-2.5-7.6V33.5z M245.5,34c0,2.2,0.5,4,1.6,5.4c1,1.4,2.4,2,4.2,2c1.8,0,3.1-0.7,4.2-2.1c1-1.4,1.5-3.3,1.5-5.8
		c0-2.2-0.5-4-1.6-5.4c-1.1-1.4-2.4-2.1-4.2-2.1c-1.7,0-3.1,0.7-4.1,2C246.1,29.5,245.5,31.4,245.5,34z"/>
	<path class="st4" d="M274.5,26.7c-0.5-0.1-1.1-0.1-1.7-0.1c-2.3,0-3.8,1-4.6,2.9v14.3h-3.5V23.6h3.4l0.1,2.3
		c1.1-1.8,2.7-2.7,4.8-2.7c0.7,0,1.2,0.1,1.5,0.3V26.7z"/>
	<path class="st4" d="M286.3,33.6c0-3.1,0.7-5.6,2.2-7.5c1.5-1.9,3.4-2.8,5.8-2.8c2.4,0,4.2,0.8,5.6,2.4V15.2h3.5v28.7h-3.2
		l-0.2-2.2c-1.4,1.7-3.3,2.5-5.8,2.5c-2.3,0-4.2-1-5.7-2.9c-1.5-1.9-2.2-4.4-2.2-7.5V33.6z M289.8,34c0,2.3,0.5,4.1,1.4,5.4
		s2.3,1.9,3.9,1.9c2.2,0,3.8-1,4.8-2.9v-9.3c-1-1.9-2.6-2.9-4.8-2.9c-1.7,0-3,0.7-4,2C290.2,29.5,289.8,31.4,289.8,34z"/>
	<path class="st4" d="M317.1,44.2c-2.7,0-5-0.9-6.7-2.7c-1.7-1.8-2.6-4.2-2.6-7.2v-0.6c0-2,0.4-3.8,1.1-5.4c0.8-1.6,1.8-2.8,3.2-3.7
		c1.4-0.9,2.9-1.3,4.5-1.3c2.6,0,4.7,0.9,6.1,2.6s2.2,4.2,2.2,7.4v1.4h-13.7c0,2,0.6,3.6,1.7,4.8c1.1,1.2,2.5,1.8,4.2,1.8
		c1.2,0,2.3-0.2,3.1-0.7c0.8-0.5,1.6-1.2,2.2-2l2.1,1.6C323,42.9,320.5,44.2,317.1,44.2z M316.7,26.1c-1.4,0-2.6,0.5-3.5,1.5
		s-1.5,2.4-1.8,4.3h10.1v-0.3c-0.1-1.8-0.6-3.1-1.4-4.1S318.1,26.1,316.7,26.1z"/>
	<path class="st4" d="M335.4,39.1l5-15.5h3.5l-7.2,20.2H334l-7.3-20.2h3.5L335.4,39.1z"/>
	<path class="st4" d="M355.4,44.2c-2.7,0-5-0.9-6.7-2.7c-1.7-1.8-2.6-4.2-2.6-7.2v-0.6c0-2,0.4-3.8,1.1-5.4c0.8-1.6,1.8-2.8,3.2-3.7
		c1.4-0.9,2.9-1.3,4.5-1.3c2.6,0,4.7,0.9,6.1,2.6s2.2,4.2,2.2,7.4v1.4h-13.7c0,2,0.6,3.6,1.7,4.8c1.1,1.2,2.5,1.8,4.2,1.8
		c1.2,0,2.3-0.2,3.1-0.7c0.8-0.5,1.6-1.2,2.2-2l2.1,1.6C361.3,42.9,358.7,44.2,355.4,44.2z M354.9,26.1c-1.4,0-2.6,0.5-3.5,1.5
		s-1.5,2.4-1.8,4.3h10.1v-0.3c-0.1-1.8-0.6-3.1-1.4-4.1S356.4,26.1,354.9,26.1z"/>
	<path class="st4" d="M371,43.8h-3.5V15.2h3.5V43.8z"/>
	<path class="st4" d="M375.6,33.5c0-2,0.4-3.8,1.2-5.3s1.9-2.8,3.2-3.7c1.4-0.9,3-1.3,4.7-1.3c2.7,0,5,1,6.7,2.9
		c1.7,1.9,2.5,4.4,2.5,7.6V34c0,2-0.4,3.7-1.1,5.3c-0.8,1.6-1.8,2.8-3.2,3.6c-1.4,0.9-3,1.3-4.8,1.3c-2.7,0-5-1-6.7-2.9
		c-1.7-1.9-2.5-4.4-2.5-7.6V33.5z M379,34c0,2.2,0.5,4,1.6,5.4c1,1.4,2.4,2,4.2,2c1.8,0,3.1-0.7,4.2-2.1c1-1.4,1.5-3.3,1.5-5.8
		c0-2.2-0.5-4-1.6-5.4c-1.1-1.4-2.4-2.1-4.2-2.1c-1.7,0-3.1,0.7-4.1,2C379.6,29.5,379,31.4,379,34z"/>
	<path class="st4" d="M415.3,34c0,3.1-0.7,5.5-2.1,7.4c-1.4,1.9-3.3,2.8-5.7,2.8c-2.5,0-4.4-0.8-5.8-2.3v9.7h-3.5V23.6h3.2l0.2,2.2
		c1.4-1.7,3.4-2.6,5.9-2.6c2.4,0,4.3,0.9,5.8,2.7c1.4,1.8,2.1,4.4,2.1,7.6V34z M411.9,33.6c0-2.3-0.5-4.1-1.5-5.4c-1-1.3-2.3-2-4-2
		c-2.1,0-3.7,0.9-4.7,2.8v9.6c1,1.8,2.6,2.8,4.7,2.8c1.7,0,3-0.7,3.9-2S411.9,36.2,411.9,33.6z"/>
	<path class="st4" d="M428.1,44.2c-2.7,0-5-0.9-6.7-2.7c-1.7-1.8-2.6-4.2-2.6-7.2v-0.6c0-2,0.4-3.8,1.1-5.4c0.8-1.6,1.8-2.8,3.2-3.7
		c1.4-0.9,2.9-1.3,4.5-1.3c2.6,0,4.7,0.9,6.1,2.6s2.2,4.2,2.2,7.4v1.4h-13.7c0,2,0.6,3.6,1.7,4.8c1.1,1.2,2.5,1.8,4.2,1.8
		c1.2,0,2.3-0.2,3.1-0.7c0.8-0.5,1.6-1.2,2.2-2l2.1,1.6C434,42.9,431.5,44.2,428.1,44.2z M427.7,26.1c-1.4,0-2.6,0.5-3.5,1.5
		s-1.5,2.4-1.8,4.3h10.1v-0.3c-0.1-1.8-0.6-3.1-1.4-4.1S429.1,26.1,427.7,26.1z"/>
	<path class="st4" d="M449.7,26.7c-0.5-0.1-1.1-0.1-1.7-0.1c-2.3,0-3.8,1-4.6,2.9v14.3H440V23.6h3.4l0.1,2.3
		c1.1-1.8,2.7-2.7,4.8-2.7c0.7,0,1.2,0.1,1.5,0.3V26.7z"/>
	<path class="st4" d="M464.6,38.5c0-0.9-0.4-1.7-1.1-2.2c-0.7-0.5-1.9-1-3.7-1.3c-1.7-0.4-3.1-0.8-4.2-1.3s-1.8-1.1-2.3-1.9
		c-0.5-0.7-0.7-1.6-0.7-2.6c0-1.7,0.7-3.1,2.1-4.2s3.2-1.7,5.4-1.7c2.3,0,4.1,0.6,5.6,1.8s2.1,2.7,2.1,4.5h-3.5
		c0-0.9-0.4-1.8-1.2-2.4c-0.8-0.7-1.8-1-3-1c-1.3,0-2.2,0.3-2.9,0.8c-0.7,0.5-1.1,1.3-1.1,2.1c0,0.8,0.3,1.5,1,1.9
		c0.7,0.4,1.8,0.8,3.6,1.2s3.1,0.8,4.2,1.4c1.1,0.5,1.9,1.2,2.4,1.9c0.5,0.8,0.8,1.7,0.8,2.8c0,1.8-0.7,3.2-2.2,4.3
		c-1.4,1.1-3.3,1.6-5.6,1.6c-1.6,0-3-0.3-4.3-0.9c-1.2-0.6-2.2-1.4-2.9-2.4c-0.7-1-1.1-2.1-1.1-3.3h3.5c0.1,1.2,0.5,2.1,1.4,2.8
		s2,1,3.4,1c1.3,0,2.4-0.3,3.1-0.8C464.2,40.1,464.6,39.4,464.6,38.5z"/>
</g>
</svg>
